<?xml version="1.0" standalone="no"?>
<!DOCTYPE svg PUBLIC "-//W3C//DTD SVG 20010904//EN"
 "http://www.w3.org/TR/2001/REC-SVG-20010904/DTD/svg10.dtd">
<svg version="1.0" xmlns="http://www.w3.org/2000/svg"
 width="150.000000pt" height="150.000000pt" viewBox="0 0 150.000000 150.000000"
 preserveAspectRatio="xMidYMid meet">
<metadata>
Created by potrace 1.14, written by Peter Selinger 2001-2017
</metadata>
<g transform="translate(0.000000,150.000000) scale(0.100000,-0.100000)"
fill="#000000" stroke="none">
<path d="M130 1398 l0 -103 108 -69 c59 -38 109 -71 111 -72 1 -2 3 -230 2
-508 -1 -441 1 -506 14 -506 8 0 15 9 15 20 0 11 2 20 5 20 6 0 69 -35 193
-109 57 -34 105 -61 107 -61 1 0 3 27 3 60 0 34 2 63 4 65 2 2 16 -2 32 -10
24 -13 31 -13 56 0 16 8 31 12 33 7 2 -4 4 -33 3 -65 0 -31 0 -57 2 -57 2 0
68 38 147 85 79 47 148 85 154 85 5 0 8 -9 6 -20 -2 -13 2 -20 11 -20 12 0 14
72 14 505 l0 504 102 68 c56 37 106 71 111 75 8 4 12 125 7 201 0 4 -126 7
-280 7 l-280 0 0 -109 0 -108 -59 1 -60 1 2 105 1 105 -282 3 -282 2 0 -102z
m650 -1013 c16 8 30 15 32 15 2 0 3 -50 3 -112 l-1 -112 -31 -19 c-30 -17 -34
-17 -62 -2 l-31 16 0 115 0 115 30 -16 c27 -14 33 -14 60 0z"/>
<path d="M730 286 c0 -10 28 -13 41 -5 10 6 7 9 -13 9 -16 0 -28 -2 -28 -4z"/>
<path d="M226 867 c1 -188 2 -347 3 -353 1 -10 90 -64 104 -64 9 0 1 690 -8
699 -6 4 -30 20 -55 34 l-45 26 1 -342z"/>
<path d="M1223 1177 l-53 -32 -1 -175 c0 -96 -1 -253 -2 -348 -1 -94 0 -172 3
-172 3 0 28 13 55 28 l50 27 2 353 c1 193 1 352 0 352 -1 -1 -26 -15 -54 -33z"/>
<path d="M159 1169 c-4 -110 1 -631 6 -639 22 -35 25 13 25 314 -1 271 -3 326
-15 336 -12 10 -15 8 -16 -11z"/>
<path d="M1330 1181 c-12 -8 -14 -63 -16 -335 0 -179 2 -326 7 -326 20 0 24
47 24 348 0 177 0 322 0 322 0 0 -7 -4 -15 -9z"/>
</g>
</svg>
