<svg xmlns="http://www.w3.org/2000/svg" viewBox="0 0 311.87 394.93">
  <title>Asset 2</title>
  <g id="Layer_2" data-name="Layer 2">
    <g id="Layer_2-2" data-name="Layer 2">
      <g id="Layer_13" data-name="Layer 13">
        <g>
          <path d="M311.87,193.08c0-82.53-66-150-147.94-152.28h0V0h-8.68l-.06,277.77h8.68V251.94h24.57L210,292.44l-4.33,11.46a119.11,119.11,0,0,1-41.8,9.08h0v-20.7H155.2V313c-3.95-.14-7.87-.47-11.71-1l0-194.77h-8.68l0,193.26h0a120.15,120.15,0,0,1-91.58-147,12.08,12.08,0,0,0,11.31-12.05,12.08,12.08,0,1,0-20.62,8.54,9.55,9.55,0,0,0,1,.9,128.83,128.83,0,0,0,99.88,158.49h0v15.23A143.75,143.75,0,0,1,16.15,201a11.59,11.59,0,0,0-4.54-22.24h0a11.57,11.57,0,0,0-4.11,22.4A152.35,152.35,0,0,0,134.83,343.33v51.6h8.68V344.47h0q5.81.63,11.7.78h0v48.33h8.68V345.24a152.24,152.24,0,0,0,148-152.16ZM36.43,151.4a6,6,0,0,1,12.08,0,6,6,0,0,1-1.77,4.27,6.26,6.26,0,0,1-1.6,1.15h0a6,6,0,0,1-6.92-1.15,6.21,6.21,0,0,1-1.25-1.8A5.92,5.92,0,0,1,36.43,151.4ZM7.26,193.77a5.43,5.43,0,0,1-1.21-3.44,5.53,5.53,0,1,1,5.52,5.57A5.47,5.47,0,0,1,7.26,193.77Zm223.68,95.78-13.6-1.81L196,247.68l29-50.3h44.27l9.2,11.49h0a119,119,0,0,1-34.13,69A126.22,126.22,0,0,1,230.94,289.55ZM270.16,188.7h-45.1l-28.79-49.86L226.18,100l7.85-1h0a120.38,120.38,0,0,1,44.59,79h0ZM214.41,86.26h0l3.74,9.91-29.23,38h-25v-61A118.79,118.79,0,0,1,214.41,86.26Zm-50.5,56.57h24.65l29,50.21-29,50.21H163.89ZM143.49,335.78h0V320.72q5.77.73,11.71.94v15Q149.29,336.46,143.49,335.78Zm20.39.84h0v-15h0a128.69,128.69,0,0,0,.05-257.23v-15c77.19,2.32,139.29,65.84,139.27,143.61A143.66,143.66,0,0,1,163.88,336.62Z" style="fill: #fff"/>
          <rect x="134.87" y="1.34" width="8.68" height="101.36" style="fill: #fff"/>
        </g>
      </g>
    </g>
  </g>
</svg>
