<svg xmlns="http://www.w3.org/2000/svg" viewBox="0 0 518.88 141.82">
  <title>Asset 1</title>
  <g id="Layer_2" data-name="Layer 2">
    <g id="Layer_2-2" data-name="Layer 2">
      <g id="Layer_16" data-name="Layer 16">
        <g>
          <g>
            <path d="M0,40.14C0,17.14,17.59,0,41.49,0,65.17,0,82.87,17,82.87,40.14S65.17,80.28,41.49,80.28C17.59,80.27,0,63.14,0,40.14Zm74.53,0c0-18.83-14.09-32.7-33-32.7S8.23,21.31,8.23,40.14s14.21,32.7,33.26,32.7S74.53,59,74.53,40.14Z" style="fill: #fff"/>
            <path d="M101.59.67h8.34V72.38h44.2V79.6H101.59Z" style="fill: #fff"/>
            <path d="M186.72,52.31V79.6h-8.23V52.31L146.92.67h8.91L182.89,45,210,.67h8.34Z" style="fill: #fff"/>
            <path d="M311.53.67V79.59h-8V16.45l-31,53.1h-3.95l-31-52.77v62.8h-8V.66h6.9l34.28,58.52L304.66.66h6.87Z" style="fill: #fff"/>
            <path d="M399,27.73c0,16.8-12.18,27-32.25,27h-21.2V79.6h-8.34V.68h29.54C386.85.67,399,10.82,399,27.73Zm-8.35,0c0-12.63-8.34-19.84-24.13-19.84h-21V47.35h21C382.34,47.35,390.68,40.14,390.68,27.73Z" style="fill: #fff"/>
            <path d="M417.07.67h8.34V79.59h-8.34Z" style="fill: #fff"/>
            <path d="M500.61,58.51h-44l-9.47,21.08h-8.68L474.57.67h8.23l36.08,78.92h-8.79Zm-3-6.76L478.63,9.36,459.69,51.75Z" style="fill: #fff"/>
          </g>
          <g>
            <path d="M98.33,111.66v12.92h17v3h-17v13.95H94.85V108.66H117.4v3H98.33Z" style="fill: #fff"/>
            <path d="M130.65,125.1c0-9.58,7.33-16.72,17.29-16.72s17.24,7.09,17.24,16.72-7.38,16.72-17.24,16.72S130.65,134.68,130.65,125.1Zm31,0a13.31,13.31,0,0,0-13.76-13.62c-7.94,0-13.86,5.78-13.86,13.62s5.92,13.62,13.86,13.62A13.32,13.32,0,0,0,161.7,125.1Z" style="fill: #fff"/>
            <path d="M179.46,125.1c0-9.58,7.33-16.72,17.29-16.72S214,115.47,214,125.1s-7.38,16.72-17.24,16.72S179.46,134.68,179.46,125.1Zm31,0a13.31,13.31,0,0,0-13.76-13.62c-7.94,0-13.86,5.78-13.86,13.62s5.92,13.62,13.86,13.62A13.32,13.32,0,0,0,210.51,125.1Z" style="fill: #fff"/>
            <path d="M237.1,111.66H225.54v-3h26.59v3H240.57v29.88h-3.48V111.66Z" style="fill: #fff"/>
            <path d="M294.56,132.76c0,5.59-4.13,8.79-12.36,8.79H267.07V108.67h14.19c7.33,0,11.56,3.1,11.56,8.46a7.63,7.63,0,0,1-5,7.47C292,125.52,294.56,128.29,294.56,132.76Zm-24-21.24v11.93H281c5.26,0,8.31-2,8.31-6s-3-6-8.31-6H270.55Zm20.53,21c0-4.27-3.15-6.15-8.93-6.15h-11.6v12.36h11.6C287.93,138.67,291.08,136.8,291.08,132.47Z" style="fill: #fff"/>
            <path d="M332.52,132.76H314.2l-3.95,8.79h-3.62l15-32.88h3.43l15,32.88h-3.66Zm-1.27-2.82-7.89-17.66-7.89,17.66Z" style="fill: #fff"/>
            <path d="M355,108.66h3.48v29.88h18.42v3H355V108.66Z" style="fill: #fff"/>
            <path d="M392,108.66h3.48v29.88h18.42v3H392Z" style="fill: #fff"/>
          </g>
        </g>
      </g>
    </g>
  </g>
</svg>
