<?xml version="1.0" encoding="utf-8"?>
<!-- Generator: Adobe Illustrator 23.0.5, SVG Export Plug-In . SVG Version: 6.00 Build 0)  -->
<svg version="1.1" xmlns="http://www.w3.org/2000/svg" xmlns:xlink="http://www.w3.org/1999/xlink" x="0px" y="0px"
	 viewBox="0 0 750 500" style="enable-background:new 0 0 750 500;" xml:space="preserve">
<style type="text/css">
	.st0{fill:#002366;}
	.st1{fill:#FFFFFF;}
</style>
<g id="Layer_1">
</g>
<g id="Layer_2">
</g>
<g id="Layer_3">
</g>
<g id="Layer_4">
</g>
<g id="Layer_5">
</g>
<g id="Layer_6">
</g>
<g id="Layer_7">
</g>
<g id="Layer_8">
</g>
<g id="Layer_9">
</g>
<g id="Layer_10">
</g>
<g id="Layer_11">
</g>
<g id="Layer_12">
</g>
<g id="Layer_13">
</g>
<g id="Layer_14">
</g>
<g id="Layer_15">
</g>
<g id="Layer_16">
	<g>
		<g>
			<path class="st0" d="M115.56,219.23c0-23,17.59-40.14,41.49-40.14c23.68,0,41.38,17.03,41.38,40.14s-17.7,40.14-41.38,40.14
				C133.15,259.36,115.56,242.23,115.56,219.23z M190.09,219.23c0-18.83-14.09-32.7-33.04-32.7c-19.05,0-33.26,13.87-33.26,32.7
				c0,18.83,14.21,32.7,33.26,32.7C176,251.92,190.09,238.06,190.09,219.23z"/>
			<path class="st0" d="M217.15,179.76h8.34v71.71h44.2v7.22h-52.54V179.76z"/>
			<path class="st0" d="M302.28,231.4v27.29h-8.23V231.4l-31.57-51.64h8.91l27.06,44.31l27.06-44.31h8.34L302.28,231.4z"/>
			<path class="st0" d="M427.09,179.76v78.92h-8.01v-63.14l-31.01,53.1h-3.95l-31.01-52.77v62.8h-8.01v-78.92H352l34.28,58.52
				l33.94-58.52H427.09z"/>
			<path class="st0" d="M514.59,206.82c0,16.8-12.18,26.95-32.25,26.95h-21.2v24.92h-8.34v-78.92h29.54
				C502.41,179.76,514.59,189.91,514.59,206.82z M506.24,206.82c0-12.63-8.34-19.84-24.13-19.84h-20.97v39.46h20.97
				C497.9,226.44,506.24,219.23,506.24,206.82z"/>
			<path class="st0" d="M532.63,179.76h8.34v78.92h-8.34V179.76z"/>
			<path class="st0" d="M616.17,237.6H572.2l-9.47,21.08h-8.68l36.08-78.92h8.23l36.08,78.92h-8.79L616.17,237.6z M613.13,230.84
				l-18.94-42.39l-18.94,42.39H613.13z"/>
		</g>
		<g>
			<path class="st0" d="M213.89,290.75v12.92h17.01v3.01h-17.01v13.95h-3.48v-32.88h22.55v3.01H213.89z"/>
			<path class="st0" d="M246.21,304.19c0-9.58,7.33-16.72,17.29-16.72c9.87,0,17.24,7.09,17.24,16.72c0,9.63-7.38,16.72-17.24,16.72
				C253.54,320.91,246.21,313.77,246.21,304.19z M277.26,304.19c0-7.85-5.87-13.62-13.76-13.62c-7.94,0-13.86,5.78-13.86,13.62
				c0,7.84,5.92,13.62,13.86,13.62C271.39,317.81,277.26,312.03,277.26,304.19z"/>
			<path class="st0" d="M295.02,304.19c0-9.58,7.33-16.72,17.29-16.72c9.87,0,17.24,7.09,17.24,16.72c0,9.63-7.38,16.72-17.24,16.72
				C302.35,320.91,295.02,313.77,295.02,304.19z M326.07,304.19c0-7.85-5.87-13.62-13.76-13.62c-7.94,0-13.86,5.78-13.86,13.62
				c0,7.84,5.92,13.62,13.86,13.62C320.2,317.81,326.07,312.03,326.07,304.19z"/>
			<path class="st0" d="M352.66,290.75h-11.56v-3.01h26.59v3.01h-11.56v29.88h-3.48V290.75z"/>
			<path class="st0" d="M410.12,311.85c0,5.59-4.13,8.79-12.36,8.79h-15.13v-32.88h14.19c7.33,0,11.56,3.1,11.56,8.46
				c0,3.76-2.02,6.25-5.03,7.47C407.58,304.61,410.12,307.38,410.12,311.85z M386.11,290.61v11.93h10.48c5.26,0,8.31-2.02,8.31-5.97
				c0-3.95-3.05-5.97-8.31-5.97H386.11z M406.64,311.56c0-4.27-3.15-6.15-8.93-6.15h-11.6v12.36h11.6
				C403.49,317.76,406.64,315.89,406.64,311.56z"/>
			<path class="st0" d="M448.08,311.85h-18.32l-3.95,8.79h-3.62l15.03-32.88h3.43l15.03,32.88h-3.66L448.08,311.85z M446.81,309.03
				l-7.89-17.66l-7.89,17.66H446.81z"/>
			<path class="st0" d="M470.54,287.75h3.48v29.88h18.42v3.01h-21.89V287.75z"/>
			<path class="st0" d="M507.6,287.75h3.48v29.88h18.42v3.01H507.6V287.75z"/>
		</g>
	</g>
</g>
<g id="Layer_17">
</g>
<g id="Layer_18">
</g>
<g id="Layer_19">
</g>
<g id="Layer_20">
</g>
<g id="Layer_21">
</g>
<g id="Layer_22">
</g>
<g id="Layer_23">
</g>
<g id="Layer_24">
</g>
<g id="Layer_25">
</g>
<g id="Layer_26">
</g>
<g id="Layer_27">
</g>
</svg>
