<?xml version="1.0" encoding="UTF-8" standalone="no"?>
<svg
   xmlns:dc="http://purl.org/dc/elements/1.1/"
   xmlns:cc="http://creativecommons.org/ns#"
   xmlns:rdf="http://www.w3.org/1999/02/22-rdf-syntax-ns#"
   xmlns:svg="http://www.w3.org/2000/svg"
   xmlns="http://www.w3.org/2000/svg"
   xmlns:sodipodi="http://sodipodi.sourceforge.net/DTD/sodipodi-0.dtd"
   xmlns:inkscape="http://www.inkscape.org/namespaces/inkscape"
   width="32"
   height="32"
   viewBox="0 0 8.4666665 8.4666669"
   version="1.1"
   id="svg3320"
   inkscape:version="1.0.1 (3bc2e813f5, 2020-09-07)"
   sodipodi:docname="football_with_C.svg">
  <defs
     id="defs3314" />
  <sodipodi:namedview
     id="base"
     pagecolor="#ffffff"
     bordercolor="#666666"
     borderopacity="1.0"
     inkscape:pageopacity="0.0"
     inkscape:pageshadow="2"
     inkscape:zoom="7.9195959"
     inkscape:cx="2.8237992"
     inkscape:cy="11.986961"
     inkscape:document-units="mm"
     inkscape:current-layer="layer1"
     inkscape:document-rotation="0"
     showgrid="false"
     units="px"
     inkscape:window-width="1366"
     inkscape:window-height="705"
     inkscape:window-x="-8"
     inkscape:window-y="-8"
     inkscape:window-maximized="1" />
  <metadata
     id="metadata3317">
    <rdf:RDF>
      <cc:Work
         rdf:about="">
        <dc:format>image/svg+xml</dc:format>
        <dc:type
           rdf:resource="http://purl.org/dc/dcmitype/StillImage" />
        <dc:title></dc:title>
      </cc:Work>
    </rdf:RDF>
  </metadata>
  <g
     inkscape:label="Layer 1"
     inkscape:groupmode="layer"
     id="layer1">
    <path
       id="path3719-7-1"
       style="color:#000000;font-style:normal;font-variant:normal;font-weight:normal;font-stretch:normal;font-size:medium;line-height:normal;font-family:sans-serif;font-variant-ligatures:normal;font-variant-position:normal;font-variant-caps:normal;font-variant-numeric:normal;font-variant-alternates:normal;font-variant-east-asian:normal;font-feature-settings:normal;font-variation-settings:normal;text-indent:0;text-align:start;text-decoration:none;text-decoration-line:none;text-decoration-style:solid;text-decoration-color:#000000;letter-spacing:normal;word-spacing:normal;text-transform:none;writing-mode:lr-tb;direction:ltr;text-orientation:mixed;dominant-baseline:auto;baseline-shift:baseline;text-anchor:start;white-space:normal;shape-padding:0;shape-margin:0;inline-size:0;clip-rule:nonzero;display:inline;overflow:visible;visibility:visible;opacity:1;isolation:auto;mix-blend-mode:normal;color-interpolation:sRGB;color-interpolation-filters:linearRGB;solid-color:#000000;solid-opacity:1;vector-effect:none;fill:#4d4d4d;fill-opacity:1;fill-rule:nonzero;stroke:none;stroke-width:0.264583;stroke-linecap:round;stroke-linejoin:round;stroke-miterlimit:4;stroke-dasharray:none;stroke-dashoffset:0;stroke-opacity:1;paint-order:normal;color-rendering:auto;image-rendering:auto;shape-rendering:auto;text-rendering:auto;enable-background:accumulate;stop-color:#000000;stop-opacity:1"
       d="m 4.2343832,0.52913333 c -2.0441999,0 -3.70519987,1.66099997 -3.70519987,3.70519987 0,2.0441999 1.66099997,3.7032001 3.70519987,3.7032001 2.0441999,0 3.7031001,-1.6590002 3.7031001,-3.7032001 0,-2.0441999 -1.6589002,-3.70519987 -3.7031001,-3.70519987 z M 5.4818833,1.0314333 c 0.5568,0.2168 1.044,0.5716 1.4158999,1.0263 h -0.014999 l -0.2144001,1.0899 c -0.010001,0.053 -0.011999,0.1071999 -0.010001,0.1601999 L 5.9425826,3.5305333 c -0.2619994,-0.6329 -0.8646993,-1.0889 -1.5781993,-1.14 v -0.7488 c 0.052,-0.012 0.1026998,-0.03 0.1504,-0.056 l 0.9709999,-0.539 z m -2.497,0 -0.01,0.011 0.9725,0.5388999 c 0.048,0.027 0.099,0.044 0.1504,0.056 v 0.7488 c -0.7135,0.051 -1.3162,0.5071 -1.5782,1.14 l -0.7152,-0.2227001 c 0.01,-0.053 0,-0.1067998 -0.01,-0.1602 l -0.215,-1.0898999 h -0.015 c 0.3715,-0.4541 0.8579,-0.8089 1.4139,-1.0257 z m 1.2473999,2.2753001 c 0.2373,0 0.4760999,0.091 0.6563,0.2712997 a 0.13229149,0.13229149 0 0 1 0,0.1876002 0.13229149,0.13229149 0 0 1 -0.1875999,0 c -0.2594002,-0.2594001 -0.6759001,-0.2594001 -0.9353,0 -0.2594001,0.2593999 -0.2594001,0.6764999 0,0.9359001 0.2593999,0.2593998 0.6758998,0.2593998 0.9353,0 a 0.13229149,0.13229149 0 0 1 0.1875999,0 0.13229149,0.13229149 0 0 1 0,0.1854999 c -0.3604998,0.3605 -0.95,0.3605 -1.3105001,0 -0.3604998,-0.3605001 -0.3604998,-0.9484001 0,-1.3090002 0.1803001,-0.1801997 0.417,-0.2712997 0.6542001,-0.2712997 z m 2.511,0.2501998 c 0.028,0.046 0.061,0.089 0.1007999,0.1260001 l 0.8144,0.7581 0.010001,-0.010001 c -0.035,0.6084001 -0.227,1.1735001 -0.5375,1.6563001 V 6.0733331 L 6.0277843,6.2082333 c -0.054,0.01 -0.1056,0.022 -0.1546,0.043 L 5.4334833,5.6435331 c 0.4021,-0.3397999 0.6583,-0.8470998 0.6583,-1.4138997 0,-0.1573001 -0.022,-0.3092001 -0.059,-0.4552 z m -5.0172999,0 0.7158,0.2211001 c -0.037,0.146 -0.059,0.2979999 -0.059,0.4553 0,0.567 0.2564,1.0744999 0.6588,1.4143998 l -0.4397,0.6072002 c -0.049,-0.021 -0.1004,-0.036 -0.1546,-0.043 l -1.1032,-0.1349 v 0.014999 C 1.0332833,5.6091333 0.84238333,5.0434332 0.80708333,4.4347333 l 0.01,0.01 0.81439997,-0.7581 c 0.04,-0.037 0.073,-0.08 0.1008,-0.1255001 z m 3.4871,2.2452999 0.4397999,0.6077 c -0.035,0.04 -0.065,0.084 -0.088,0.1339001 l -0.4687,1.0082001 h 0.010999 c -0.2789999,0.073 -0.5706999,0.1156999 -0.8728001,0.1156999 -0.3020999,0 -0.5932998,-0.043 -0.8723,-0.1156999 h 0.010999 L 2.9043833,6.5438332 c -0.023,-0.049 -0.053,-0.093 -0.088,-0.1334 l 0.4397998,-0.6077 c 0.2842001,0.1778 0.6188001,0.2822 0.9782001,0.2822 0.3596999,0 0.6944,-0.1047001 0.9787001,-0.2827001 z"
       inkscape:export-filename="F:\vignesh\work\custom icons\asma chebbi - football\previews\shot - all icons.png"
       inkscape:export-xdpi="96"
       inkscape:export-ydpi="96" />
  </g>
</svg>
