<?xml version="1.0" encoding="UTF-8" standalone="no"?>
<svg
   xmlns:dc="http://purl.org/dc/elements/1.1/"
   xmlns:cc="http://creativecommons.org/ns#"
   xmlns:rdf="http://www.w3.org/1999/02/22-rdf-syntax-ns#"
   xmlns:svg="http://www.w3.org/2000/svg"
   xmlns="http://www.w3.org/2000/svg"
   xmlns:sodipodi="http://sodipodi.sourceforge.net/DTD/sodipodi-0.dtd"
   xmlns:inkscape="http://www.inkscape.org/namespaces/inkscape"
   width="32"
   height="32"
   viewBox="0 0 8.4666665 8.4666669"
   version="1.1"
   id="svg3320"
   inkscape:version="1.0.1 (3bc2e813f5, 2020-09-07)"
   sodipodi:docname="football_with_P.svg">
  <defs
     id="defs3314" />
  <sodipodi:namedview
     id="base"
     pagecolor="#ffffff"
     bordercolor="#666666"
     borderopacity="1.0"
     inkscape:pageopacity="0.0"
     inkscape:pageshadow="2"
     inkscape:zoom="7.9195959"
     inkscape:cx="2.8237992"
     inkscape:cy="11.986961"
     inkscape:document-units="mm"
     inkscape:current-layer="layer1"
     inkscape:document-rotation="0"
     showgrid="false"
     units="px"
     inkscape:window-width="1366"
     inkscape:window-height="705"
     inkscape:window-x="-8"
     inkscape:window-y="-8"
     inkscape:window-maximized="1" />
  <metadata
     id="metadata3317">
    <rdf:RDF>
      <cc:Work
         rdf:about="">
        <dc:format>image/svg+xml</dc:format>
        <dc:type
           rdf:resource="http://purl.org/dc/dcmitype/StillImage" />
        <dc:title></dc:title>
      </cc:Work>
    </rdf:RDF>
  </metadata>
  <g
     inkscape:label="Layer 1"
     inkscape:groupmode="layer"
     id="layer1">
    <path
       id="path3242-4-7"
       style="color:#000000;font-style:normal;font-variant:normal;font-weight:normal;font-stretch:normal;font-size:medium;line-height:normal;font-family:sans-serif;font-variant-ligatures:normal;font-variant-position:normal;font-variant-caps:normal;font-variant-numeric:normal;font-variant-alternates:normal;font-variant-east-asian:normal;font-feature-settings:normal;font-variation-settings:normal;text-indent:0;text-align:start;text-decoration:none;text-decoration-line:none;text-decoration-style:solid;text-decoration-color:#000000;letter-spacing:normal;word-spacing:normal;text-transform:none;writing-mode:lr-tb;direction:ltr;text-orientation:mixed;dominant-baseline:auto;baseline-shift:baseline;text-anchor:start;white-space:normal;shape-padding:0;shape-margin:0;inline-size:0;clip-rule:nonzero;display:inline;overflow:visible;visibility:visible;opacity:1;isolation:auto;mix-blend-mode:normal;color-interpolation:sRGB;color-interpolation-filters:linearRGB;solid-color:#000000;solid-opacity:1;vector-effect:none;fill:#4d4d4d;fill-opacity:1;fill-rule:nonzero;stroke:none;stroke-width:0.264583;stroke-linecap:round;stroke-linejoin:round;stroke-miterlimit:4;stroke-dasharray:none;stroke-dashoffset:0;stroke-opacity:1;paint-order:normal;color-rendering:auto;image-rendering:auto;shape-rendering:auto;text-rendering:auto;enable-background:accumulate;stop-color:#000000;stop-opacity:1"
       d="m 4.2343832,0.52913333 c -2.0441999,0 -3.70519987,1.66099997 -3.70519987,3.70519987 0,2.0441999 1.66099997,3.7032001 3.70519987,3.7032001 2.0441999,0 3.7031001,-1.6590002 3.7031001,-3.7032001 0,-2.0441999 -1.6589002,-3.70519987 -3.7031001,-3.70519987 z M 5.4818833,1.0314333 c 0.5568,0.2168 1.044,0.5716 1.4158999,1.0263 h -0.014999 l -0.2145001,1.0899 c -0.01,0.053 -0.011999,0.1071999 -0.01,0.1601999 L 5.9425853,3.5305333 c -0.2620021,-0.6329 -0.864702,-1.0889 -1.578202,-1.14 v -0.7488 c 0.052,-0.012 0.1026998,-0.03 0.1504,-0.056 l 0.9709999,-0.539 z m -2.497,0 -0.01,0.011 0.9725,0.5389999 c 0.048,0.027 0.099,0.044 0.1504,0.056 v 0.7488 c -0.7134,0.051 -1.3162,0.5071 -1.5782,1.14 l -0.7152,-0.2227001 c 0,-0.053 0,-0.1067998 -0.01,-0.1601999 l -0.215,-1.0899 h -0.015 c 0.3715,-0.4541 0.8579,-0.8089 1.4139,-1.0258 z m 0.8531001,2.1441001 h 0.7575999 c 0.2372001,0 0.4320001,0.1942999 0.4320001,0.4314999 v 0.4589 c 0,0.2371 -0.1948,0.4314999 -0.4320001,0.4314999 h -0.6268 v 0.6624 a 0.13229149,0.13229149 0 0 1 -0.1307999,0.1329 0.13229149,0.13229149 0 0 1 -0.1328002,-0.1329 v -0.7952999 -1.0562 A 0.13230471,0.13230471 0 0 1 3.8379834,3.1755334 Z m 0.1307999,0.2634998 v 0.7948002 h 0.6268 c 0.094,0 0.1684999,-0.074 0.1684999,-0.1679001 v -0.4589 c 0,-0.094 -0.074,-0.1680001 -0.1684999,-0.1680001 z m 2.7744999,0.1177999 c 0.028,0.046 0.061,0.089 0.1007999,0.1261002 l 0.8144,0.7581 0.010001,-0.010001 c -0.035,0.6084001 -0.227,1.1735001 -0.5375,1.6563001 V 6.0733331 L 6.0277843,6.2082333 c -0.054,0.01 -0.1056,0.022 -0.1546,0.043 L 5.4334833,5.6435331 c 0.4021,-0.3398999 0.6583,-0.8471998 0.6583,-1.4138997 0,-0.1573001 -0.022,-0.3092001 -0.059,-0.4553001 z m -5.0172999,0 0.7157,0.2212002 c -0.037,0.146 -0.059,0.2979999 -0.059,0.4553 0,0.567 0.2565,1.0744999 0.6589,1.4143998 l -0.4397,0.6072002 c -0.049,-0.021 -0.1004,-0.036 -0.1546,-0.043 l -1.1033,-0.1349 v 0.014999 C 1.0332833,5.6091333 0.84238333,5.0434332 0.80708333,4.4347333 l 0.01,0.01 0.81439997,-0.7581 c 0.04,-0.037 0.073,-0.08 0.1008,-0.1255001 z m 3.4872,2.2454 0.4396999,0.6077 c -0.035,0.04 -0.065,0.084 -0.088,0.1338001 l -0.4687,1.0082001 0.010999,0.01 c -0.2789999,0.073 -0.5706999,0.1157999 -0.8728001,0.1157999 -0.3020999,0 -0.5931998,-0.043 -0.8723,-0.1157999 l 0.010998,-0.01 -0.4686995,-1.0082001 c -0.022997,-0.049 -0.052997,-0.093 -0.087997,-0.1333 l 0.4397001,-0.6077 c 0.2842998,0.1778 0.6187998,0.2822 0.9782998,0.2822 0.3595999,0 0.6943,-0.1047001 0.9787001,-0.2827001 z"
       inkscape:export-filename="F:\vignesh\work\custom icons\asma chebbi - football\previews\shot - all icons.png"
       inkscape:export-xdpi="96"
       inkscape:export-ydpi="96" />
  </g>
</svg>
