<?xml version="1.0" encoding="UTF-8" standalone="no"?>
<svg
   xmlns:dc="http://purl.org/dc/elements/1.1/"
   xmlns:cc="http://creativecommons.org/ns#"
   xmlns:rdf="http://www.w3.org/1999/02/22-rdf-syntax-ns#"
   xmlns:svg="http://www.w3.org/2000/svg"
   xmlns="http://www.w3.org/2000/svg"
   xmlns:sodipodi="http://sodipodi.sourceforge.net/DTD/sodipodi-0.dtd"
   xmlns:inkscape="http://www.inkscape.org/namespaces/inkscape"
   width="32"
   height="32"
   viewBox="0 0 8.4666665 8.4666669"
   version="1.1"
   id="svg3320"
   inkscape:version="1.0.1 (3bc2e813f5, 2020-09-07)"
   sodipodi:docname="own_goal.svg">
  <defs
     id="defs3314" />
  <sodipodi:namedview
     id="base"
     pagecolor="#ffffff"
     bordercolor="#666666"
     borderopacity="1.0"
     inkscape:pageopacity="0.0"
     inkscape:pageshadow="2"
     inkscape:zoom="7.9195959"
     inkscape:cx="2.8237992"
     inkscape:cy="11.986961"
     inkscape:document-units="mm"
     inkscape:current-layer="layer1"
     inkscape:document-rotation="0"
     showgrid="false"
     units="px"
     inkscape:window-width="1366"
     inkscape:window-height="705"
     inkscape:window-x="-8"
     inkscape:window-y="-8"
     inkscape:window-maximized="1" />
  <metadata
     id="metadata3317">
    <rdf:RDF>
      <cc:Work
         rdf:about="">
        <dc:format>image/svg+xml</dc:format>
        <dc:type
           rdf:resource="http://purl.org/dc/dcmitype/StillImage" />
        <dc:title></dc:title>
      </cc:Work>
    </rdf:RDF>
  </metadata>
  <g
     inkscape:label="Layer 1"
     inkscape:groupmode="layer"
     id="layer1">
    <path
       id="path4444-0-9"
       style="color:#000000;font-style:normal;font-variant:normal;font-weight:normal;font-stretch:normal;font-size:medium;line-height:normal;font-family:sans-serif;font-variant-ligatures:normal;font-variant-position:normal;font-variant-caps:normal;font-variant-numeric:normal;font-variant-alternates:normal;font-variant-east-asian:normal;font-feature-settings:normal;font-variation-settings:normal;text-indent:0;text-align:start;text-decoration:none;text-decoration-line:none;text-decoration-style:solid;text-decoration-color:#000000;letter-spacing:normal;word-spacing:normal;text-transform:none;writing-mode:lr-tb;direction:ltr;text-orientation:mixed;dominant-baseline:auto;baseline-shift:baseline;text-anchor:start;white-space:normal;shape-padding:0;shape-margin:0;inline-size:0;clip-rule:nonzero;display:inline;overflow:visible;visibility:visible;opacity:1;isolation:auto;mix-blend-mode:normal;color-interpolation:sRGB;color-interpolation-filters:linearRGB;solid-color:#000000;solid-opacity:1;vector-effect:none;fill:#ff5555;fill-opacity:1;fill-rule:nonzero;stroke:none;stroke-width:0.264583;stroke-linecap:round;stroke-linejoin:round;stroke-miterlimit:4;stroke-dasharray:none;stroke-dashoffset:0;stroke-opacity:1;paint-order:normal;color-rendering:auto;image-rendering:auto;shape-rendering:auto;text-rendering:auto;enable-background:accumulate;stop-color:#000000;stop-opacity:1"
       d="m 4.2343332,0.52943336 c -2.0441999,0 -3.70519988,1.65840004 -3.70519988,3.70260014 0,2.0441999 1.66099998,3.7051998 3.70519988,3.7051998 2.0441999,0 3.7031001,-1.6609999 3.7032001,-3.7051998 0,-2.0442001 -1.6590002,-3.70260014 -3.7032001,-3.70260014 z m 1.247,0.49969994 c 0.5572001,0.2168001 1.0448999,0.5722001 1.4169001,1.0273001 h -0.018 l -0.2128995,1.0914 c -0.010001,0.054 -0.010999,0.1076 -0.010001,0.1607 l -1.2428,0.3932999 c -0.03,-0.045 -0.066,-0.086 -0.1099995,-0.1203999 l -0.7969001,-0.6191 c -0.044,-0.034 -0.093,-0.058 -0.1442,-0.073 v -1.2469 c 0.052,-0.012 0.1027001,-0.03 0.1504,-0.056 L 5.4843333,1.0453333 Z m -2.4964999,0 -0.01,0.011 0.9725,0.5411 c 0.048,0.026 0.099,0.044 0.1504,0.056 v 1.2469 c -0.052,0.016 -0.1020001,0.039 -0.1468001,0.073 L 3.1562333,3.5762332 c -0.044,0.034 -0.08,0.076 -0.1096,0.1204 l -1.2444,-0.3937997 c 0,-0.053 0,-0.1066001 -0.01,-0.1602001 l -0.2129,-1.0914 h -0.015 c 0.3715,-0.4542 0.8578,-0.8094001 1.4139,-1.0263 z m -1.2604,2.5265 1.2428,0.3927002 c 0,0.054 2.989e-4,0.1083998 0.015,0.1622999 l 0.2635999,0.9724998 c 0.014999,0.055 0.042,0.1045001 0.074,0.1488001 L 2.6009333,6.2525334 c -0.049,-0.021 -0.1001,-0.036 -0.1539,-0.042 l -1.1054,-0.1328002 -0.001,0.010001 c -0.3096,-0.4823008 -0.5007,-1.0466009 -0.53579999,-1.6541009 l 0.01,0.010001 0.81439999,-0.7576 c 0.04,-0.037 0.072,-0.08 0.1,-0.1256001 z m 5.0187999,0 c 0.028,0.045 0.06,0.088 0.1002999,0.1255001 l 0.8123002,0.7576 0.01,-0.01 c -0.035,0.6099998 -0.226,1.1765999 -0.5374,1.6603998 v -0.012999 l -1.1033,0.1328 c -0.054,0.010001 -0.1059001,0.022 -0.1550001,0.043 L 5.151832,5.2293356 c 0.032,-0.044 0.058,-0.093 0.072,-0.1472999 L 5.4894318,4.1094356 c 0.014999,-0.054 0.019,-0.1083998 0.014999,-0.1621999 z m -1.8056,1.8364999 0.7158001,1.0170001 c -0.035,0.041 -0.066,0.085 -0.089,0.1349 L 5.0956331,7.5522334 h 0.010001 c -0.2782001,0.072 -0.5685002,0.1152998 -0.8697,0.1152998 -0.3009,0 -0.5916001,-0.042 -0.8697002,-0.1148 h 0.010001 L 2.9075333,6.5445333 c -0.023,-0.05 -0.054,-0.095 -0.089,-0.1354 L 3.5337332,5.3932334 c 0.05,0.019 0.1033999,0.031 0.1592,0.031 h 1.0878 c 0.056,0 0.1101,-0.011999 0.1607,-0.031 z"
       sodipodi:nodetypes="ssssscccccccccccccccccccccccccccccccccccccccccccccccccccccccccscccccssc"
       inkscape:export-filename="F:\vignesh\work\custom icons\asma chebbi - football\previews\shot - all icons.png"
       inkscape:export-xdpi="96"
       inkscape:export-ydpi="96" />
  </g>
</svg>
